<?xml version="1.0" encoding="UTF-8" standalone="no"?>
<!-- Created with Inkscape (http://www.inkscape.org/) -->

<svg
   xmlns:dc="http://purl.org/dc/elements/1.1/"
   xmlns:cc="http://creativecommons.org/ns#"
   xmlns:rdf="http://www.w3.org/1999/02/22-rdf-syntax-ns#"
   xmlns:svg="http://www.w3.org/2000/svg"
   xmlns="http://www.w3.org/2000/svg"
   xmlns:sodipodi="http://sodipodi.sourceforge.net/DTD/sodipodi-0.dtd"
   xmlns:inkscape="http://www.inkscape.org/namespaces/inkscape"
   id="svg2"
   version="1.1"
   inkscape:version="0.48.4 r9939"
   width="299.7125"
   height="96.8875"
   xml:space="preserve"
   sodipodi:docname="NÖ-Logo.eps"><metadata
     id="metadata8"><rdf:RDF><cc:Work
         rdf:about=""><dc:format>image/svg+xml</dc:format><dc:type
           rdf:resource="http://purl.org/dc/dcmitype/StillImage" /><dc:title></dc:title></cc:Work></rdf:RDF></metadata><defs
     id="defs6"><clipPath
       clipPathUnits="userSpaceOnUse"
       id="clipPath18"><path
         d="m 0,0 2397.71,0 0,775 L 0,775 0,0 z"
         id="path20" /></clipPath></defs><sodipodi:namedview
     pagecolor="#ffffff"
     bordercolor="#666666"
     borderopacity="1"
     objecttolerance="10"
     gridtolerance="10"
     guidetolerance="10"
     inkscape:pageopacity="0"
     inkscape:pageshadow="2"
     inkscape:window-width="826"
     inkscape:window-height="992"
     id="namedview4"
     showgrid="false"
     inkscape:zoom="1.9084957"
     inkscape:cx="162.44753"
     inkscape:cy="83.103158"
     inkscape:window-x="840"
     inkscape:window-y="0"
     inkscape:window-maximized="0"
     inkscape:current-layer="g16" /><g
     id="g10"
     inkscape:groupmode="layer"
     inkscape:label="ink_ext_XXXXXX"
     transform="matrix(1.25,0,0,-1.25,0,96.8875)"><g
       id="g16"
       clip-path="url(#clipPath18)"
       transform="scale(0.1,0.1)"><path
         d="M 5,5 95,5 95,725 5,725 5,5 z"
         style="fill:#176fc1;fill-opacity:1;fill-rule:nonzero;stroke:none"
         id="path22"
         inkscape:connector-curvature="0" /><path
         d="m 10,10 80,0 0,710 -80,0 0,-710 z M 100,0 0,0 0,730 100,730 100,0"
         style="fill:#176fc1;fill-opacity:1;fill-rule:nonzero;stroke:none"
         id="path24"
         inkscape:connector-curvature="0" /><path
         d="m 635,5 90,0 0,720 -90,0 0,-720 z"
         style="fill:#176fc1;fill-opacity:1;fill-rule:nonzero;stroke:none"
         id="path26"
         inkscape:connector-curvature="0" /><path
         d="m 640,10 80,0 0,710 -80,0 0,-710 z m 90,-10 -100,0 0,730 100,0 0,-730"
         style="fill:#176fc1;fill-opacity:1;fill-rule:nonzero;stroke:none"
         id="path28"
         inkscape:connector-curvature="0" /><path
         d="m 275,725 180,0 0,-360 -180,360"
         style="fill:#176fc1;fill-opacity:1;fill-rule:nonzero;stroke:none"
         id="path30"
         inkscape:connector-curvature="0" /><path
         d="M 283.09,720 450,386.184 450,720 283.09,720 z M 450.527,362.766 266.91,730 460,730 l 0,-365 -9.473,-2.234"
         style="fill:#176fc1;fill-opacity:1;fill-rule:nonzero;stroke:none"
         id="path32"
         inkscape:connector-curvature="0" /><path
         d="M 275,365 275,5 455,5 275,365"
         style="fill:#176fc1;fill-opacity:1;fill-rule:nonzero;stroke:none"
         id="path34"
         inkscape:connector-curvature="0" /><path
         d="M 280,10 446.91,10 280,343.816 280,10 z M 463.09,0 270,0 l 0,365 9.473,2.234 L 463.09,0"
         style="fill:#176fc1;fill-opacity:1;fill-rule:nonzero;stroke:none"
         id="path36"
         inkscape:connector-curvature="0" /><path
         d="m 818.578,718.203 70.129,0 91.746,-134.773 0,134.773 70.937,0 0,-243.437 -70.937,0 -91.25,134.046 0,-134.046 -70.625,0 0,243.437"
         style="fill:#176fc1;fill-opacity:1;fill-rule:nonzero;stroke:none"
         id="path38"
         inkscape:connector-curvature="0" /><path
         d="m 1231.18,775.078 43.75,0 0,-41.562 -43.75,0 0,41.562 z m -64.07,-179.07 c 0,-24.574 4.56,-42.223 13.67,-52.957 9.11,-10.731 21.51,-16.098 37.2,-16.098 16.12,0 28.6,5.254 37.44,15.766 8.84,10.511 13.26,29.379 13.26,56.605 0,22.906 -4.62,39.645 -13.84,50.211 -9.22,10.567 -21.73,15.856 -37.53,15.856 -15.13,0 -27.28,-5.371 -36.45,-16.106 -9.17,-10.73 -13.75,-28.496 -13.75,-53.277 z m -6.25,179.07 43.13,0 0,-41.562 -43.13,0 0,41.562 z M 1091.8,596.316 c 0,39.715 11.07,70.633 33.2,92.762 22.14,22.121 52.97,33.188 92.48,33.188 40.51,0 71.72,-10.871 93.63,-32.61 21.92,-21.734 32.88,-52.183 32.88,-91.347 0,-28.43 -4.79,-51.747 -14.36,-69.946 -9.58,-18.195 -23.41,-32.355 -41.51,-42.48 -18.1,-10.121 -40.65,-15.18 -67.65,-15.18 -27.45,0 -50.17,4.363 -68.16,13.106 -17.98,8.742 -32.56,22.57 -43.74,41.484 -11.18,18.918 -16.77,42.594 -16.77,71.023"
         style="fill:#176fc1;fill-opacity:1;fill-rule:nonzero;stroke:none"
         id="path40"
         inkscape:connector-curvature="0" /><path
         d="m 1371.59,555.293 71.56,4.473 c 1.55,-11.598 4.7,-20.43 9.47,-26.504 7.75,-9.832 18.83,-14.746 33.22,-14.746 10.75,0 19.02,2.515 24.84,7.546 5.81,5.032 8.72,10.868 8.72,17.5 0,6.305 -2.77,11.946 -8.31,16.926 -5.53,4.977 -18.38,9.68 -38.55,14.102 -33.01,7.414 -56.55,17.258 -70.62,29.535 -14.18,12.277 -21.27,27.93 -21.27,46.961 0,12.5 3.63,24.305 10.89,35.422 7.26,11.113 18.19,19.855 32.77,26.215 14.58,6.359 34.56,9.543 59.95,9.543 31.16,0 54.91,-5.778 71.26,-17.321 16.36,-11.547 26.09,-29.918 29.19,-55.105 l -70.94,-4.137 c -1.89,10.906 -5.85,18.848 -11.9,23.809 -6.05,4.961 -14.4,7.441 -25.06,7.441 -8.77,0 -15.37,-1.855 -19.81,-5.558 -4.45,-3.704 -6.66,-8.211 -6.66,-13.52 0,-3.871 1.81,-7.359 5.45,-10.453 3.53,-3.207 11.93,-6.192 25.23,-8.953 32.9,-7.082 56.47,-14.246 70.71,-21.492 14.23,-7.247 24.59,-16.235 31.07,-26.965 6.48,-10.735 9.72,-22.739 9.72,-36.008 0,-15.602 -4.32,-29.981 -12.95,-43.145 -8.64,-13.164 -20.71,-23.148 -36.22,-29.953 -15.5,-6.801 -35.05,-10.203 -58.64,-10.203 -41.42,0 -70.1,7.957 -86.05,23.883 -15.95,15.922 -24.97,36.156 -27.07,60.707"
         style="fill:#176fc1;fill-opacity:1;fill-rule:nonzero;stroke:none"
         id="path42"
         inkscape:connector-curvature="0" /><path
         d="m 1630.56,718.203 70.13,0 91.75,-134.773 0,134.773 70.93,0 0,-243.437 -70.93,0 -91.25,134.046 0,-134.046 -70.63,0 0,243.437"
         style="fill:#176fc1;fill-opacity:1;fill-rule:nonzero;stroke:none"
         id="path44"
         inkscape:connector-curvature="0" /><path
         d="m 2031.09,775.078 43.75,0 0,-41.562 -43.75,0 0,41.562 z m 12.89,-207.5 -26.8,87.52 -26.66,-87.52 53.46,0 z m -83.2,207.5 43.12,0 0,-41.562 -43.12,0 0,41.562 z m 98.79,-260 -85.36,0 -11.95,-40.312 -76.8,0 91.45,243.437 82.3,0 91.25,-243.437 -78.74,0 -12.15,40.312"
         style="fill:#176fc1;fill-opacity:1;fill-rule:nonzero;stroke:none"
         id="path46"
         inkscape:connector-curvature="0" /><path
         d="m 2161.49,555.293 71.56,4.473 c 1.54,-11.598 4.71,-20.43 9.47,-26.504 7.76,-9.832 18.83,-14.746 33.22,-14.746 10.74,0 19.03,2.515 24.85,7.546 5.8,5.032 8.71,10.868 8.71,17.5 0,6.305 -2.78,11.946 -8.3,16.926 -5.55,4.977 -18.4,9.68 -38.55,14.102 -33.02,7.414 -56.57,17.258 -70.63,29.535 -14.18,12.277 -21.27,27.93 -21.27,46.961 0,12.5 3.63,24.305 10.9,35.422 7.26,11.113 18.18,19.855 32.75,26.215 14.59,6.359 34.57,9.543 59.97,9.543 31.14,0 54.89,-5.778 71.26,-17.321 16.35,-11.547 26.07,-29.918 29.18,-55.105 l -70.94,-4.137 c -1.89,10.906 -5.86,18.848 -11.91,23.809 -6.04,4.961 -14.4,7.441 -25.05,7.441 -8.77,0 -15.38,-1.855 -19.81,-5.558 -4.44,-3.704 -6.66,-8.211 -6.66,-13.52 0,-3.871 1.82,-7.359 5.45,-10.453 3.53,-3.207 11.93,-6.192 25.23,-8.953 32.91,-7.082 56.46,-14.246 70.7,-21.492 14.24,-7.247 24.59,-16.235 31.08,-26.965 6.48,-10.735 9.72,-22.739 9.72,-36.008 0,-15.602 -4.31,-29.981 -12.95,-43.145 -8.65,-13.164 -20.72,-23.148 -36.21,-29.953 -15.51,-6.801 -35.06,-10.203 -58.65,-10.203 -41.42,0 -70.09,7.957 -86.05,23.883 -15.94,15.922 -24.97,36.156 -27.07,60.707"
         style="fill:#176fc1;fill-opacity:1;fill-rule:nonzero;stroke:none"
         id="path48"
         inkscape:connector-curvature="0" /><path
         d="m 897.328,306.953 0,35.781 82.031,0 0,-73.254 c -15.707,-10.714 -29.597,-18.007 -41.668,-21.878 -12.07,-3.868 -26.39,-5.805 -42.961,-5.805 -20.394,0 -37.019,3.48 -49.871,10.437 -12.855,6.961 -22.824,17.321 -29.894,31.082 -7.07,13.758 -10.606,29.559 -10.606,47.387 0,18.766 3.868,35.09 11.602,48.969 7.734,13.879 19.066,24.414 33.996,31.613 11.641,5.547 27.313,8.324 47,8.324 18.988,0 33.195,-1.722 42.609,-5.16 9.414,-3.449 17.231,-8.781 23.446,-16.015 6.211,-7.239 10.879,-16.407 14.004,-27.512 l -51.25,-9.125 c -2.11,6.469 -5.676,11.422 -10.711,14.851 -5.032,3.434 -11.45,5.149 -19.254,5.149 -11.625,0 -20.895,-4.047 -27.797,-12.133 -6.91,-8.094 -10.363,-20.891 -10.363,-38.394 0,-18.598 3.492,-31.891 10.48,-39.86 6.981,-7.972 16.719,-11.957 29.207,-11.957 5.93,0 11.582,0.856 16.973,2.574 5.383,1.719 11.551,4.637 18.496,8.778 l 0,16.148 -35.469,0"
         style="fill:#176fc1;fill-opacity:1;fill-rule:nonzero;stroke:none"
         id="path50"
         inkscape:connector-curvature="0" /><path
         d="m 993.5,416.641 58.95,0 34.62,-57.875 34.8,57.875 58.66,0 -66.87,-99.887 0,-71.988 -53.28,0 0,71.988 -66.88,99.887"
         style="fill:#176fc1;fill-opacity:1;fill-rule:nonzero;stroke:none"
         id="path52"
         inkscape:connector-curvature="0" /><path
         d="m 1196.9,416.641 69.85,0 26.91,-104.61 26.8,104.61 69.72,0 0,-171.875 -43.44,0 0,131.015 -33.56,-131.015 -39.34,0 -33.5,131.015 0,-131.015 -43.44,0 0,171.875"
         style="fill:#176fc1;fill-opacity:1;fill-rule:nonzero;stroke:none"
         id="path54"
         inkscape:connector-curvature="0" /><path
         d="m 1424.36,416.641 49.65,0 64.73,-95.133 0,95.133 50,0 0,-171.875 -50,0 -64.38,94.625 0,-94.625 -50,0 0,171.875"
         style="fill:#176fc1;fill-opacity:1;fill-rule:nonzero;stroke:none"
         id="path56"
         inkscape:connector-curvature="0" /><path
         d="m 1716.06,310.391 -18.89,61.734 -18.75,-61.734 37.64,0 z m 11.08,-37.188 -60.18,0 -8.48,-28.437 -54.2,0 64.46,171.875 58.14,0 64.43,-171.875 -55.58,0 -8.59,28.437"
         style="fill:#176fc1;fill-opacity:1;fill-rule:nonzero;stroke:none"
         id="path58"
         inkscape:connector-curvature="0" /><path
         d="m 1799.09,301.598 50.47,3.168 c 1.09,-8.219 3.32,-14.473 6.67,-18.774 5.46,-6.965 13.27,-10.445 23.42,-10.445 7.57,0 13.41,1.777 17.51,5.336 4.09,3.558 6.15,7.687 6.15,12.379 0,4.457 -1.96,8.441 -5.85,11.968 -3.91,3.516 -12.96,6.836 -27.18,9.969 -23.27,5.235 -39.87,12.199 -49.79,20.879 -10,8.684 -15,19.746 -15,33.203 0,8.84 2.56,17.184 7.68,25.043 5.11,7.864 12.8,14.039 23.08,18.543 10.27,4.492 24.35,6.742 42.23,6.742 21.94,0 38.68,-4.078 50.2,-12.23 11.52,-8.156 18.38,-21.129 20.56,-38.918 l -50,-2.914 c -1.32,7.691 -4.12,13.285 -8.39,16.781 -4.25,3.496 -10.14,5.25 -17.64,5.25 -6.18,0 -10.84,-1.312 -13.97,-3.93 -3.12,-2.617 -4.68,-5.804 -4.68,-9.562 0,-2.734 1.28,-5.199 3.87,-7.391 2.51,-2.265 8.45,-4.375 17.82,-6.328 23.2,-5.012 39.82,-10.074 49.86,-15.195 10.03,-5.121 17.33,-11.477 21.9,-19.055 4.57,-7.586 6.86,-16.066 6.86,-25.449 0,-11.023 -3.05,-21.191 -9.14,-30.492 -6.09,-9.301 -14.6,-16.364 -25.53,-21.168 -10.94,-4.805 -24.72,-7.211 -41.35,-7.211 -29.2,0 -49.43,5.629 -60.67,16.887 -11.25,11.254 -17.61,25.558 -19.09,42.914"
         style="fill:#176fc1;fill-opacity:1;fill-rule:nonzero;stroke:none"
         id="path60"
         inkscape:connector-curvature="0" /><path
         d="m 1983.66,244.766 53.2812,0 0,171.875 -53.2812,0 0,-171.875 z"
         style="fill:#176fc1;fill-opacity:1;fill-rule:nonzero;stroke:none"
         id="path62"
         inkscape:connector-curvature="0" /><path
         d="m 2074.87,416.641 142.34,0 0,-36.719 -89.06,0 0,-27.344 82.5,0 0,-35 -82.5,0 0,-33.906 91.56,0 0,-38.906 -144.84,0 0,171.875"
         style="fill:#176fc1;fill-opacity:1;fill-rule:nonzero;stroke:none"
         id="path64"
         inkscape:connector-curvature="0" /><path
         d="m 2236.31,416.641 161.4,0 0,-42.5 -54.21,0 0,-129.375 -53.13,0 0,129.375 -54.06,0 0,42.5"
         style="fill:#176fc1;fill-opacity:1;fill-rule:nonzero;stroke:none"
         id="path66"
         inkscape:connector-curvature="0" /><path
         d="m 810.922,14.7656 17.9688,0 0,136.094 -17.9688,0 0,-136.094 z"
         style="fill:#176fc1;fill-opacity:1;fill-rule:nonzero;stroke:none"
         id="path68"
         inkscape:connector-curvature="0" /><path
         d="m 907.438,58.3594 17.031,1.5625 c 0.801,-6.8164 2.664,-12.4063 5.593,-16.7735 2.93,-4.3632 7.481,-7.8984 13.653,-10.5937 6.168,-2.6953 13.105,-4.0391 20.82,-4.0391 6.848,0 12.891,1.0196 18.137,3.0664 5.242,2.0469 9.144,4.8477 11.707,8.4063 2.559,3.5625 3.84,7.4453 3.84,11.6445 0,4.2578 -1.223,7.9766 -3.672,11.1563 -2.442,3.1797 -6.516,5.8476 -12.199,8.0156 -3.653,1.418 -11.723,3.6328 -24.211,6.6328 -12.496,2.9961 -21.246,5.8281 -26.25,8.4961 -6.496,3.4062 -11.336,7.6445 -14.52,12.6992 -3.183,5.0552 -4.773,10.7192 -4.773,16.9762 0,6.887 1.941,13.321 5.84,19.309 3.89,5.984 9.578,10.531 17.054,13.633 7.477,3.097 15.785,4.652 24.938,4.652 10.066,0 18.953,-1.625 26.648,-4.867 7.692,-3.254 13.606,-8.027 17.746,-14.332 4.14,-6.309 6.37,-13.453 6.68,-21.426 l -17.188,-1.25 c -0.929,8.5 -4.07,14.926 -9.414,19.27 -5.351,4.34 -13.253,6.511 -23.703,6.511 -10.883,0 -18.816,-1.996 -23.793,-5.98 -4.976,-3.988 -7.464,-8.793 -7.464,-14.418 0,-4.891 1.757,-8.902 5.281,-12.059 3.469,-3.152 12.511,-6.3864 27.14,-9.6911 14.618,-3.3047 24.649,-6.1953 30.079,-8.6679 7.892,-3.6485 13.722,-8.2657 17.482,-13.8555 3.76,-5.5977 5.64,-12.0391 5.64,-19.3281 0,-7.2305 -2.07,-14.043 -6.21,-20.4375 -4.14,-6.3985 -10.077,-11.3672 -17.83,-14.9219 -7.754,-3.5508 -16.477,-5.3281 -26.172,-5.3281 -12.297,0 -22.598,1.7929 -30.907,5.3711 -8.304,3.5781 -14.824,8.9687 -19.543,16.1601 -4.726,7.1953 -7.218,15.3281 -7.46,24.4063"
         style="fill:#176fc1;fill-opacity:1;fill-rule:nonzero;stroke:none"
         id="path70"
         inkscape:connector-curvature="0" /><path
         d="m 1074.79,14.7656 0,120.0004 -44.84,0 0,16.093 107.65,0 0,-16.093 -44.84,0 0,-120.0004 -17.97,0"
         style="fill:#176fc1;fill-opacity:1;fill-rule:nonzero;stroke:none"
         id="path72"
         inkscape:connector-curvature="0" /><path
         d="m 1156.63,14.7656 0,136.0934 98.44,0 0,-16.093 -80.47,0 0,-41.5629 75.31,0 0,-16.0937 -75.31,0 0,-46.25 83.59,0 0,-16.0938 -101.56,0"
         style="fill:#176fc1;fill-opacity:1;fill-rule:nonzero;stroke:none"
         id="path74"
         inkscape:connector-curvature="0" /><path
         d="m 1282.89,14.7656 0,136.0934 18.39,0 71.45,-106.859 0,106.859 17.19,0 0,-136.0934 -18.39,0 -71.45,106.8594 0,-106.8594 -17.19,0"
         style="fill:#176fc1;fill-opacity:1;fill-rule:nonzero;stroke:none"
         id="path76"
         inkscape:connector-curvature="0" /><path
         d="m 1509.48,150.859 17.97,0 0,-78.6402 c 0,-13.6836 -1.55,-24.5469 -4.64,-32.5938 -3.09,-8.0469 -8.66,-14.5898 -16.73,-19.6406 -8.07,-5.0391 -18.64,-7.5625 -31.75,-7.5625 -12.72,0 -23.14,2.1953 -31.23,6.5937 -8.1,4.3906 -13.88,10.7539 -17.34,19.0742 -3.46,8.3321 -5.19,19.7032 -5.19,34.129 l 0,78.6402 17.97,0 0,-78.5504 c 0,-11.8242 1.09,-20.5352 3.29,-26.1367 2.2,-5.6016 5.97,-9.918 11.31,-12.9531 5.35,-3.0274 11.89,-4.5469 19.62,-4.5469 13.22,0 22.66,3.0039 28.28,9.0078 5.63,6.0039 8.44,17.543 8.44,34.6289 l 0,78.5504"
         style="fill:#176fc1;fill-opacity:1;fill-rule:nonzero;stroke:none"
         id="path78"
         inkscape:connector-curvature="0" /><path
         d="m 1557.31,14.7656 0,136.0934 18.4,0 71.45,-106.859 0,106.859 17.19,0 0,-136.0934 -18.4,0 -71.45,106.8594 0,-106.8594 -17.19,0"
         style="fill:#176fc1;fill-opacity:1;fill-rule:nonzero;stroke:none"
         id="path80"
         inkscape:connector-curvature="0" /><path
         d="m 1758.28,68.0469 0,16.0937 57.65,0 0,-50.4726 c -8.84,-7.0508 -17.96,-12.3555 -27.36,-15.9102 -9.4,-3.5547 -19.05,-5.3359 -28.94,-5.3359 -13.36,0 -25.49,2.8593 -36.41,8.5898 -10.92,5.7266 -19.15,14.0039 -24.72,24.8438 -5.57,10.8281 -8.35,22.9336 -8.35,36.3086 0,13.2461 2.77,25.6129 8.3,37.0979 5.54,11.484 13.5,20.011 23.89,25.582 10.39,5.57 22.35,8.359 35.9,8.359 9.83,0 18.72,-1.598 26.66,-4.789 7.95,-3.195 14.18,-7.644 18.69,-13.348 4.52,-5.703 7.95,-13.14 10.3,-22.316 l -16.26,-4.453 c -2.04,6.933 -4.58,12.379 -7.61,16.344 -3.02,3.957 -7.35,7.132 -12.97,9.515 -5.62,2.383 -11.86,3.578 -18.72,3.578 -8.22,0 -15.33,-1.254 -21.32,-3.765 -5.99,-2.508 -10.82,-5.809 -14.51,-9.903 -3.67,-4.089 -6.53,-8.582 -8.56,-13.476 -3.47,-8.426 -5.19,-17.5666 -5.19,-27.422 0,-12.1446 2.08,-22.3047 6.25,-30.4883 4.17,-8.1758 10.24,-14.25 18.21,-18.2149 7.97,-3.9687 16.44,-5.9492 25.4,-5.9492 7.78,0 15.38,1.5039 22.8,4.5117 7.41,3.0079 13.03,6.2149 16.87,9.625 l 0,25.3946 -40,0"
         style="fill:#176fc1;fill-opacity:1;fill-rule:nonzero;stroke:none"
         id="path82"
         inkscape:connector-curvature="0" /><path
         d="m 1836.38,58.3594 17.03,1.5625 c 0.8,-6.8164 2.67,-12.4063 5.6,-16.7735 2.93,-4.3632 7.47,-7.8984 13.64,-10.5937 6.17,-2.6953 13.12,-4.0391 20.83,-4.0391 6.84,0 12.89,1.0196 18.13,3.0664 5.25,2.0469 9.15,4.8477 11.71,8.4063 2.55,3.5625 3.84,7.4453 3.84,11.6445 0,4.2578 -1.23,7.9766 -3.67,11.1563 -2.45,3.1797 -6.51,5.8476 -12.21,8.0156 -3.64,1.418 -11.71,3.6328 -24.2,6.6328 -12.5,2.9961 -21.25,5.8281 -26.25,8.4961 -6.5,3.4062 -11.34,7.6445 -14.52,12.6992 -3.18,5.0552 -4.78,10.7192 -4.78,16.9762 0,6.887 1.95,13.321 5.84,19.309 3.89,5.984 9.58,10.531 17.06,13.633 7.47,3.097 15.79,4.652 24.94,4.652 10.07,0 18.95,-1.625 26.64,-4.867 7.7,-3.254 13.61,-8.027 17.75,-14.332 4.15,-6.309 6.37,-13.453 6.68,-21.426 l -17.19,-1.25 c -0.93,8.5 -4.07,14.926 -9.42,19.27 -5.34,4.34 -13.24,6.511 -23.69,6.511 -10.89,0 -18.82,-1.996 -23.8,-5.98 -4.98,-3.988 -7.46,-8.793 -7.46,-14.418 0,-4.891 1.76,-8.902 5.29,-12.059 3.45,-3.152 12.5,-6.3864 27.12,-9.6911 14.63,-3.3047 24.66,-6.1953 30.08,-8.6679 7.9,-3.6485 13.72,-8.2657 17.49,-13.8555 3.76,-5.5977 5.64,-12.0391 5.64,-19.3281 0,-7.2305 -2.07,-14.043 -6.2,-20.4375 -4.14,-6.3985 -10.09,-11.3672 -17.84,-14.9219 -7.75,-3.5508 -16.48,-5.3281 -26.18,-5.3281 -12.29,0 -22.59,1.7929 -30.9,5.3711 -8.31,3.5781 -14.82,8.9687 -19.55,16.1601 -4.72,7.1953 -7.2,15.3281 -7.45,24.4063"
         style="fill:#176fc1;fill-opacity:1;fill-rule:nonzero;stroke:none"
         id="path84"
         inkscape:connector-curvature="0" /><path
         d="m 2058.42,150.859 17.97,0 0,-78.6402 c 0,-13.6836 -1.55,-24.5469 -4.64,-32.5938 -3.09,-8.0469 -8.67,-14.5898 -16.73,-19.6406 -8.06,-5.0391 -18.65,-7.5625 -31.74,-7.5625 -12.74,0 -23.15,2.1953 -31.24,6.5937 -8.1,4.3906 -13.88,10.7539 -17.34,19.0742 -3.46,8.3321 -5.19,19.7032 -5.19,34.129 l 0,78.6402 17.97,0 0,-78.5504 c 0,-11.8242 1.1,-20.5352 3.29,-26.1367 2.19,-5.6016 5.97,-9.918 11.31,-12.9531 5.35,-3.0274 11.89,-4.5469 19.61,-4.5469 13.24,0 22.66,3.0039 28.29,9.0078 5.62,6.0039 8.44,17.543 8.44,34.6289 l 0,78.5504"
         style="fill:#176fc1;fill-opacity:1;fill-rule:nonzero;stroke:none"
         id="path86"
         inkscape:connector-curvature="0" /><path
         d="m 2106.25,14.7656 0,136.0934 18.4,0 L 2196.1,44 l 0,106.859 17.19,0 0,-136.0934 -18.4,0 -71.45,106.8594 0,-106.8594 -17.19,0"
         style="fill:#176fc1;fill-opacity:1;fill-rule:nonzero;stroke:none"
         id="path88"
         inkscape:connector-curvature="0" /><path
         d="m 2261.59,30.8594 29,0 c 8.94,0 15.97,0.8359 21.07,2.5039 5.1,1.6719 9.16,4.0195 12.19,7.0508 4.26,4.2695 7.58,10 9.96,17.207 2.36,7.207 3.55,15.9414 3.55,26.2109 0,14.2266 -2.32,25.156 -6.99,32.793 -4.67,7.637 -10.33,12.762 -16.99,15.355 -4.83,1.86 -12.58,2.786 -23.26,2.786 l -28.53,0 0,-103.9066 z m -17.97,-16.0938 0,136.0934 46.81,0 c 10.57,0 18.63,-0.648 24.2,-1.949 7.77,-1.797 14.41,-5.047 19.92,-9.746 7.17,-6.066 12.52,-13.816 16.08,-23.262 3.55,-9.433 5.33,-20.2184 5.33,-32.3473 0,-10.3359 -1.21,-19.4961 -3.62,-27.4766 -2.4,-7.9883 -5.48,-14.5898 -9.25,-19.8242 -3.77,-5.2227 -7.91,-9.3437 -12.39,-12.3437 -4.49,-3.0079 -9.88,-5.2774 -16.23,-6.8243 -6.33,-1.5507 -13.59,-2.3203 -21.81,-2.3203 l -49.04,0"
         style="fill:#176fc1;fill-opacity:1;fill-rule:nonzero;stroke:none"
         id="path90"
         inkscape:connector-curvature="0" /></g></g></svg>